<svg width="48" height="48" viewBox="0 0 48 48" fill="none" xmlns="http://www.w3.org/2000/svg">
<path d="M0 24C0 10.7452 10.7452 0 24 0C37.2548 0 48 10.7452 48 24C48 37.2548 37.2548 48 24 48C10.7452 48 0 37.2548 0 24Z" fill="white"/>
<path fill-rule="evenodd" clip-rule="evenodd" d="M35.9992 30.6177C35.9907 29.8656 35.8276 29.0977 35.5315 28.331C35.3849 27.9501 35.2554 27.6502 34.9622 26.9959L34.945 26.9577L34.8637 26.776C33.0642 22.7814 31.1715 18.8212 29.1863 14.8955C29.1361 14.7968 29.096 14.7179 29.0076 14.5431L29.0039 14.5359C28.6792 13.8942 28.5295 13.6042 28.3347 13.2476C27.978 12.5993 27.6145 12.0926 27.1754 11.678C26.4027 10.9278 25.3569 10.4698 24.2704 10.4009L23.7975 10.3999C22.6563 10.4566 21.5757 10.9328 20.781 11.7218C20.3648 12.1232 20.0158 12.615 19.6674 13.2474C19.4719 13.6042 19.3111 13.9153 19.0044 14.5219L18.9682 14.5935L18.8282 14.87C17.5072 17.4808 16.2178 20.1277 14.9593 22.8113C14.0389 24.7823 13.3888 26.2016 12.7634 27.6196C12.3773 28.4989 12.1587 29.1566 12.0631 29.855C11.8607 31.2024 12.1498 32.6238 12.8637 33.7923C13.4784 34.8064 14.4004 35.6202 15.4735 36.0911C16.3096 36.4593 17.2312 36.6257 18.1385 36.5711C19.285 36.5092 20.4364 36.1066 21.5032 35.4333C22.3555 34.9006 23.1327 34.2306 24.0014 33.3203C24.788 34.1469 25.5031 34.7757 26.2773 35.2902C27.3323 35.9971 28.4637 36.4405 29.6051 36.5503C30.9321 36.6915 32.3023 36.3533 33.4111 35.6043C34.3873 34.9496 35.1582 33.9844 35.5914 32.8761C35.8725 32.1595 36.0122 31.387 35.9992 30.6177ZM33.2981 31.7061C33.0689 32.5116 32.5158 33.2177 31.7978 33.6221C31.1651 33.9825 30.401 34.1126 29.6715 33.9885C28.8027 33.8507 27.9484 33.4018 27.0595 32.6724C26.6236 32.3158 26.2029 31.9092 25.7243 31.3918C26.5823 30.2588 27.22 29.2684 27.7234 28.2378C28.3448 26.9615 28.6952 25.7697 28.7322 24.5862C28.7569 23.6973 28.5823 22.8408 28.2035 22.1055C27.692 21.0923 26.7729 20.2947 25.6908 19.9069C24.7111 19.5505 23.619 19.5163 22.6117 19.8088C21.643 20.0879 20.7772 20.6799 20.1855 21.4821C19.6701 22.1741 19.3609 23.0341 19.29 23.9316C19.1955 25.0527 19.428 26.2191 19.928 27.4539C20.4732 28.7772 21.2469 30.0464 22.2806 31.3887C21.9283 31.7776 21.5466 32.1512 21.1377 32.5087C20.2514 33.2724 19.4112 33.7577 18.5477 33.9479C17.7884 34.1215 16.9888 34.029 16.3237 33.6863C15.5311 33.284 14.9201 32.5233 14.6909 31.6535C14.5184 31.0248 14.5476 30.3279 14.7653 29.6744C14.8933 29.2919 15.0225 28.9835 15.3267 28.305L15.3522 28.248C15.4077 28.1241 15.4436 28.0437 15.4804 27.9605C17.2418 24.0491 19.1067 20.1455 21.0718 16.2536L21.2219 15.9565L21.2294 15.9415C21.5804 15.2458 21.7434 14.9292 21.9509 14.5482C22.2292 14.044 22.4744 13.7164 22.7701 13.4876C23.1245 13.2053 23.5692 13.054 24.0075 13.0641C24.4762 13.0588 24.9345 13.2289 25.289 13.5322C25.6054 13.7998 25.8474 14.1528 26.171 14.7678C26.6361 15.6575 27.0409 16.4603 27.7823 17.9519L27.9148 18.2183L27.9294 18.2478C29.591 21.5981 31.179 24.9616 32.6924 28.3378C32.713 28.3849 32.7289 28.4213 32.7675 28.5089L32.7959 28.5731C33.0803 29.218 33.197 29.5109 33.2981 29.8741C33.4644 30.4775 33.4657 31.1213 33.2984 31.7051L33.2981 31.7061ZM22.2806 31.3887C22.3763 31.283 22.4698 31.1762 22.5612 31.0683L22.5511 31.7341C22.459 31.6184 22.3689 31.5032 22.2806 31.3887ZM25.7243 31.3918C25.6371 31.5071 25.5475 31.6238 25.4556 31.7422L25.4322 31.0705C25.5322 31.1823 25.6294 31.2892 25.7243 31.3918ZM24.0001 29.2819C24.1525 29.4949 24.2719 29.6502 24.4072 29.8125L24.0072 30.1487L23.5926 29.8307C23.7349 29.6438 23.8707 29.4611 24.0001 29.2819ZM24.0001 29.2819C24.8064 28.1652 25.3676 27.1839 25.7479 26.1674C26.0352 25.3858 26.1547 24.6904 26.083 24.0525C26.0261 23.5535 25.8007 23.0968 25.4575 22.7991C24.7394 22.1672 23.5757 22.0982 22.7599 22.6344C22.4336 22.8462 22.1774 23.1673 22.0426 23.5391C21.9004 23.9135 21.8671 24.362 21.9274 24.8831C21.9982 25.446 22.1756 26.0277 22.4577 26.672C22.7539 27.3402 23.1327 28.0088 23.5999 28.7068L23.6262 28.745L23.6711 28.8104C23.8008 28.9991 23.9066 29.1513 24.0001 29.2819Z" fill="#FF7977"/>
</svg>
