<svg width="48" height="48" viewBox="0 0 48 48" fill="none" xmlns="http://www.w3.org/2000/svg">
<path d="M0 24C0 10.7452 10.7452 0 24 0C37.2548 0 48 10.7452 48 24C48 37.2548 37.2548 48 24 48C10.7452 48 0 37.2548 0 24Z" fill="white"/>
<path d="M24.3491 18.3447C26.8531 13.5831 32.6691 13.5831 35.1731 15.9639C37.6771 18.3447 38.4771 23.1055 35.9731 27.8679C34.2211 31.4359 28.1091 35.0119 24.3491 37.3879C20.5891 35.0119 14.4771 31.4359 12.7251 27.8679C10.2211 23.1055 11.0211 18.3447 13.5251 15.9639C16.0291 13.5831 21.8451 13.5831 24.3491 18.3447Z" fill="#EB1919"/>
</svg>
